# xmcd
#
# Track frame offsets:
#	150
#	13203
#	25304
#	43715
#	62440
#	79804
#	98001
#	107998
#	117597
#	133601
#	150360
#
# Disc length: 2134 seconds
#
# Revision: 0
# Processed by: cddbd v1.4PL0 Copyright (c) Steve Scherf et al.
# Submitted via: OrangeCD 4.1
#
DISCID=8908540b
DTITLE=Billy Ebeling and the late for dinner band - Wrong side of the planet
DYEAR=1900
DGENRE=
TTITLE0=Hey babe
TTITLE1=Photograph
TTITLE2=Rain on my tin roof
TTITLE3=Its your own damn fault
TTITLE4=Wrong side of the planet
TTITLE5=Desert drive
TTITLE6=Pagen god
TTITLE7=What I'm gonna do
TTITLE8=Trying to do my best
TTITLE9=Warmth and tenderness
TTITLE10=Run for cover
EXTD=
EXTT0=
EXTT1=
EXTT2=
EXTT3=
EXTT4=
EXTT5=
EXTT6=
EXTT7=
EXTT8=
EXTT9=
EXTT10=
PLAYORDER=
